<?xml version="1.0" encoding="UTF-8"?>
<svg xmlns="http://www.w3.org/2000/svg" viewBox="0 0 147.52 168.86">
  <defs>
    <style>
      .cls-1 {
        fill: #00a369;
      }

      .cls-2 {
        fill: #166f00;
      }

      .cls-3 {
        fill: #d70034;
      }

      .cls-4 {
        fill: #e90f00;
      }

      .cls-5 {
        fill: #00ee53;
      }

      .cls-6 {
        fill: #ff6670;
      }

      .cls-7 {
        fill: #f02c0e;
      }

      .cls-8 {
        fill: #e11000;
      }

      .cls-9 {
        fill: #ff1a00;
      }

      .cls-10 {
        fill: #ff2121;
      }

      .cls-11 {
        fill: red;
      }

      .cls-12 {
        fill: #ffe74e;
      }

      .cls-13 {
        fill: #ff103e;
      }

      .cls-14 {
        fill: #f11200;
      }

      .cls-15 {
        fill: #ff216e;
      }

      .cls-16 {
        fill: #ff1910;
      }

      .cls-17 {
        fill: #ffd2cc;
      }

      .cls-18 {
        fill: #00820e;
      }

      .cls-19 {
        fill: #ff3f0d;
      }

      .cls-20 {
        fill: #f36149;
      }

      .cls-21 {
        fill: #aaf100;
      }

      .cls-22 {
        fill: #ff9ccf;
      }

      .cls-23 {
        fill: #ff3610;
      }

      .cls-24 {
        fill: #dd0016;
      }

      .cls-25 {
        fill: #ff5c2d;
      }

      .cls-26 {
        fill: #008400;
      }

      .cls-27 {
        fill: #ff6a21;
      }

      .cls-28 {
        fill: #a10;
      }

      .cls-29 {
        fill: #ff970d;
      }

      .cls-30 {
        fill: #ff2300;
      }

      .cls-31 {
        fill: #ff4200;
      }

      .cls-32 {
        fill: #ffc388;
      }

      .cls-33 {
        fill: #ff5b88;
      }

      .cls-34 {
        fill: #0fbb00;
      }

      .cls-35 {
        fill: #e00;
      }

      .cls-36 {
        fill: #ff2135;
      }
    </style>
  </defs>
  <g id="_レイヤー_1" data-name="レイヤー 1">
    <rect class="cls-17" x="22.42" y="41.82" width="4.31" height="4.31"/>
    <rect class="cls-20" x="26.73" y="33.63" width="4.74" height="2.59"/>
    <rect class="cls-33" x="15.52" y="34.92" width="5.89" height="4.17"/>
    <rect class="cls-30" x="6.04" y="46.13" width="4.74" height="4.74"/>
    <rect class="cls-3" x="10.78" y="55.19" width="4.17" height="4.17"/>
    <rect class="cls-36" x="2.3" y="60.79" width="6.11" height="4.89"/>
    <rect class="cls-16" x="8.41" y="67.83" width="6.54" height="5.6"/>
    <rect class="cls-9" x="19.4" y="72.29" width="7.33" height="5.03"/>
    <rect class="cls-12" x="12.86" y="77.86" width="3.77" height="3.77"/>
    <rect class="cls-25" x="18.68" y="79.74" width="3.74" height="3.74"/>
    <rect class="cls-35" x="14.08" y="87.66" width="7.33" height="6.61"/>
    <rect class="cls-11" x="24.57" y="91.11" width="6.18" height="6.18"/>
    <rect class="cls-32" y="72.29" width="3.31" height="3.31"/>
    <rect class="cls-17" x="8.41" y="85.01" width="4.28" height="4.28"/>
    <rect class="cls-13" y="87.14" width="5.35" height="3.83"/>
    <rect class="cls-32" x="6.04" y="97.87" width="4.51" height="4.51"/>
    <rect class="cls-22" x="16.63" y="97.29" width="3.45" height="3.45"/>
    <rect class="cls-36" x="23.86" y="99.02" width="7.62" height="7.62"/>
    <rect class="cls-17" x="14.08" y="107.21" width="4.59" height="3.74"/>
    <rect class="cls-33" x="22.42" y="110.01" width="5.25" height="5.25"/>
    <rect class="cls-25" x="30.75" y="108.25" width="4.38" height="4.38"/>
    <rect class="cls-35" x="37.29" y="104.77" width="9.27" height="7.87"/>
    <rect class="cls-13" x="61.65" y="90.11" width="6.25" height="6.25"/>
    <rect class="cls-33" x="48.29" y="99.02" width="5.03" height="4.46"/>
    <rect class="cls-30" x="56.05" y="97.87" width="8.73" height="10.38"/>
    <rect class="cls-30" x="48.29" y="105.63" width="6.04" height="9.63"/>
    <rect class="cls-28" x="70.03" y="92.66" width="6.36" height="6.36"/>
    <rect class="cls-6" x="67.9" y="103.06" width="10.85" height="12.2"/>
    <rect class="cls-9" x="57.34" y="110.01" width="7.44" height="6.11"/>
    <rect class="cls-6" x="48.29" y="116.12" width="9.05" height="10.78"/>
    <rect class="cls-19" x="39.97" y="116.12" width="5.39" height="5.39"/>
    <rect class="cls-16" x="30.02" y="116.12" width="6.47" height="6.47"/>
    <rect class="cls-13" x="39.74" y="123.52" width="5.96" height="5.96"/>
    <rect class="cls-9" x="14.75" y="118.81" width="3.93" height="3.93"/>
    <rect class="cls-20" x="25.04" y="125.03" width="4.98" height="4.98"/>
    <rect class="cls-3" x="32.77" y="126.9" width="5.75" height="5.75"/>
    <rect class="cls-30" x="35.98" y="135.47" width="5.95" height="5.95"/>
    <rect class="cls-28" x="46.78" y="131.21" width="6.04" height="6.04"/>
    <rect class="cls-9" x="41.93" y="144.86" width="4.85" height="4.85"/>
    <rect class="cls-12" x="45.7" y="137.96" width="3.45" height="3.45"/>
    <rect class="cls-20" x="30.02" y="143.43" width="3.24" height="3.24"/>
    <rect class="cls-17" x="37.29" y="151.19" width="2.68" height="3.59"/>
    <rect class="cls-30" x="52.42" y="139.29" width="7.99" height="7.99"/>
    <rect class="cls-3" x="48.36" y="149.71" width="4.06" height="4.06"/>
    <rect class="cls-32" x="49.29" y="156.36" width="5.03" height="5.89"/>
    <rect class="cls-8" x="60.41" y="118.81" width="10.87" height="7.69"/>
    <rect class="cls-25" x="73.21" y="117.98" width="5.55" height="5.55"/>
    <rect class="cls-4" x="67.9" y="127.69" width="9.56" height="9.56"/>
    <rect class="cls-36" x="55.19" y="128.34" width="10.66" height="8.91"/>
    <rect class="cls-27" x="63.52" y="139.69" width="8.34" height="8.34"/>
    <rect class="cls-11" x="56.05" y="150.18" width="7.47" height="7.47"/>
    <rect class="cls-24" x="66.5" y="150.18" width="6.18" height="6.18"/>
    <rect class="cls-35" x="62.51" y="159.95" width="6.32" height="6.75"/>
    <rect class="cls-16" x="82.49" y="122.59" width="10.2" height="10.2"/>
    <rect class="cls-16" x="79.62" y="134.23" width="6.04" height="8.05"/>
    <rect class="cls-6" x="74.46" y="143.86" width="9.41" height="9.41"/>
    <rect class="cls-9" x="73.72" y="156.8" width="5.45" height="5.45"/>
    <rect class="cls-17" x="82.42" y="154.78" width="5.17" height="5.17"/>
    <rect class="cls-20" x="75.98" y="163.33" width="6.43" height="5.53"/>
    <rect class="cls-16" x="78.75" y="93.23" width="9.49" height="8.37"/>
    <rect class="cls-24" x="81.49" y="104.48" width="6.1" height="7.04"/>
    <rect class="cls-36" x="90.34" y="95.01" width="12.99" height="12.99"/>
    <rect class="cls-24" x="87.59" y="85.8" width="6.86" height="6.86"/>
    <rect class="cls-13" x="97.15" y="85.8" width="6.18" height="6.18"/>
    <rect class="cls-27" x="106.12" y="86.02" width="8.99" height="8.99"/>
    <rect class="cls-23" x="106.12" y="97.29" width="9.71" height="10.71"/>
    <rect class="cls-29" x="81.49" y="115.26" width="4.81" height="4.81"/>
    <rect class="cls-35" x="89.53" y="111.09" width="8.26" height="8.98"/>
    <rect class="cls-4" x="100.45" y="110.44" width="8.91" height="8.91"/>
    <rect class="cls-30" x="95.2" y="122.74" width="7.27" height="7.27"/>
    <rect class="cls-33" x="87.59" y="136.24" width="5.1" height="5.1"/>
    <rect class="cls-30" x="95.14" y="132.79" width="7.33" height="7.33"/>
    <rect class="cls-11" x="87.34" y="144.86" width="6.32" height="6.32"/>
    <rect class="cls-32" x="93.66" y="159.2" width="4.13" height="4.13"/>
    <rect class="cls-28" x="96.84" y="144.69" width="6.49" height="6.49"/>
    <rect class="cls-32" x="105.75" y="151.74" width="3.61" height="3.61"/>
    <rect class="cls-3" x="104.19" y="134.23" width="5.07" height="5.07"/>
    <rect class="cls-17" x="110.98" y="143.29" width="3.37" height="3.37"/>
    <rect class="cls-10" x="104.91" y="121.51" width="8.5" height="8.5"/>
    <rect class="cls-22" x="113.41" y="132.79" width="3.45" height="3.45"/>
    <rect class="cls-19" x="112.66" y="110.44" width="4.75" height="4.75"/>
    <rect class="cls-24" x="115.11" y="117.66" width="5.89" height="7.37"/>
    <rect class="cls-35" x="119.03" y="126.5" width="6.29" height="6.29"/>
    <rect class="cls-6" x="127.04" y="61.37" width="10.92" height="10.92"/>
    <rect class="cls-11" x="119.03" y="62.66" width="5.59" height="5.59"/>
    <rect class="cls-35" x="119.57" y="70.89" width="6.32" height="8.08"/>
    <rect class="cls-10" x="121.01" y="81.63" width="8.19" height="7.65"/>
    <rect class="cls-30" x="117.41" y="90.66" width="7.2" height="7.2"/>
    <rect class="cls-12" x="119.03" y="101.6" width="6.29" height="4.02"/>
    <rect class="cls-16" x="120.39" y="108.25" width="6.65" height="6.65"/>
    <rect class="cls-22" x="122.17" y="118.65" width="4.87" height="4.87"/>
    <rect class="cls-8" x="125.89" y="91.11" width="9.01" height="9.01"/>
    <rect class="cls-29" x="129.77" y="110.44" width="3.84" height="3.84"/>
    <rect class="cls-20" x="130.86" y="117.04" width="4.04" height="4.04"/>
    <rect class="cls-9" x="134.46" y="103.06" width="4.94" height="4.94"/>
    <rect class="cls-30" x="130.86" y="42.54" width="5.06" height="5.06"/>
    <rect class="cls-30" x="134.46" y="51.59" width="6.71" height="6.71"/>
    <rect class="cls-9" x="113.25" y="65.68" width="4.17" height="4.17"/>
    <rect class="cls-24" x="141.17" y="60.79" width="6.13" height="5.03"/>
    <rect class="cls-22" x="139.4" y="68.69" width="3.59" height="3.59"/>
    <rect class="cls-3" x="129.77" y="73.94" width="7.16" height="5.8"/>
    <rect class="cls-27" x="134.46" y="81.63" width="6.71" height="8.48"/>
    <rect class="cls-17" x="142.99" y="75.59" width="4.53" height="4.53"/>
    <rect class="cls-20" x="143.12" y="93.23" width="4.19" height="4.19"/>
    <rect class="cls-32" x="133.18" y="33.98" width="5.48" height="5.48"/>
    <rect class="cls-20" x="141.2" y="43.98" width="3.62" height="3.62"/>
    <rect class="cls-13" x="44.23" y="19.11" width="4.06" height="4.06"/>
    <rect class="cls-17" x="27.87" y="25.55" width="4.31" height="4.31"/>
    <rect class="cls-31" x="62.8" y="64.24" width="22.85" height="23.43"/>
    <rect class="cls-15" x="87.24" y="43.98" width="24.42" height="25.44"/>
    <rect class="cls-14" x="58.03" y="36.72" width="24" height="24"/>
    <polygon class="cls-34" points="103.75 0 90.49 8.86 106.88 14.27 103.75 0"/>
    <polygon class="cls-18" points="66.5 16.57 66.73 4.31 75.23 13.74 66.5 16.57"/>
    <polygon class="cls-21" points="54.1 29.24 50.82 15.78 61.17 19.34 54.1 29.24"/>
    <polygon class="cls-2" points="113.26 19.81 119.48 31.68 125.86 24.39 113.26 19.81"/>
    <polygon class="cls-34" points="119.93 34.92 131.26 37.22 120.59 46.46 119.93 34.92"/>
    <polygon class="cls-21" points="86.55 23.18 88.61 9.21 96.2 11.86 86.55 23.18"/>
    <polygon class="cls-34" points="63.56 32.55 55.36 35.72 61.47 21.26 63.56 32.55"/>
    <polygon class="cls-26" points="71.43 34.63 80.92 25.87 82.88 34.92 71.43 34.63"/>
    <polygon class="cls-1" points="77.71 21.42 66.92 18.43 70.97 33.32 77.71 21.42"/>
    <polygon class="cls-26" points="105.84 40.1 118.08 45.26 118.08 34.94 105.84 40.1"/>
    <polygon class="cls-5" points="98.58 40.8 110.8 22.84 116.55 28.59 98.58 40.8"/>
    <polygon class="cls-5" points="93.57 24.01 106.88 16.48 97.24 37.43 93.57 24.01"/>
    <polygon class="cls-2" points="69.19 17.08 81.27 12.77 81.27 21.39 69.19 17.08"/>
    <polygon class="cls-1" points="96.29 14.18 106.22 15.17 93.31 22.47 96.29 14.18"/>
    <polygon class="cls-18" points="90 22.13 94.1 35.75 85.91 35.75 90 22.13"/>
    <polygon class="cls-34" points="124.39 15.84 127.06 22.39 115.55 18.59 124.39 15.84"/>
  </g>
  <g id="_レイヤー_2" data-name="レイヤー 2">
    <rect class="cls-16" x="28.74" y="65.39" width="10.99" height="10.99"/>
    <rect class="cls-8" x="18.11" y="60.79" width="8.62" height="9.77"/>
    <rect class="cls-30" x="36.36" y="28.89" width="6.68" height="6.68"/>
    <rect class="cls-27" x="44.8" y="28.49" width="8.34" height="7.47"/>
    <rect class="cls-6" x="43.04" y="59.35" width="14.3" height="11.21"/>
    <rect class="cls-12" x="41.68" y="72.29" width="5.1" height="5.1"/>
    <rect class="cls-4" x="48.29" y="72.29" width="10.06" height="10.06"/>
    <rect class="cls-4" x="25.15" y="78.61" width="9.75" height="9.75"/>
    <rect class="cls-4" x="116.84" y="49.58" width="10.2" height="10.2"/>
    <rect class="cls-4" x="92.26" y="73.44" width="11.07" height="11.07"/>
    <rect class="cls-23" x="105.84" y="73.44" width="11.57" height="11.57"/>
    <rect class="cls-7" x="28.74" y="48.72" width="10.99" height="14.51"/>
    <rect class="cls-35" x="41.68" y="48.72" width="9.77" height="7.26"/>
    <rect class="cls-23" x="31.47" y="38.37" width="7.33" height="8.34"/>
    <rect class="cls-10" x="43.04" y="38.37" width="8.34" height="8.34"/>
    <rect class="cls-30" x="17.25" y="49.58" width="8.34" height="8.34"/>
    <rect class="cls-27" x="37.29" y="79.26" width="8.41" height="8.41"/>
    <rect class="cls-10" x="48.29" y="84.5" width="10.06" height="11.21"/>
    <rect class="cls-23" x="34.24" y="89.28" width="11.46" height="11.46"/>
  </g>
</svg>