<?xml version="1.0" encoding="UTF-8"?>
<svg xmlns="http://www.w3.org/2000/svg" viewBox="0 0 1024 1024">
  <defs>
    <style>
      .cls-1, .cls-2 {
        fill: #cc0702;
      }

      .cls-1, .cls-3, .cls-4 {
        stroke-miterlimit: 10;
      }

      .cls-1, .cls-4 {
        stroke: #cc0702;
        stroke-width: .25px;
      }

      .cls-5 {
        fill: #ea5a5a;
      }

      .cls-3 {
        fill: none;
        stroke: #ea5a5a;
        stroke-width: 6px;
      }

      .cls-4 {
        fill: #fff;
      }
    </style>
  </defs>
  <g id="_レイヤー_3" data-name="レイヤー 3">
    <rect class="cls-2" x="0" width="1024" height="1024"/>
    <line class="cls-3" x1="785" y1="517.66" x2="774.21" y2="687.09"/>
  </g>
  <g id="_レイヤー_4" data-name="レイヤー 4">
    <g id="_レイヤー_6" data-name="レイヤー 6">
      <line class="cls-3" x1="205.51" y1="304.45" x2="289.3" y2="206.88"/>
      <line class="cls-3" x1="141.83" y1="413.46" x2="208.53" y2="304.45"/>
      <line class="cls-3" x1="58.17" y1="518.49" x2="141.83" y2="413.46"/>
      <line class="cls-3" x1="52.03" y1="395.29" x2="137.38" y2="411.5"/>
      <line class="cls-3" x1="168.48" y1="561.03" x2="139.77" y2="416.05"/>
      <line class="cls-3" x1="235.68" y1="493.19" x2="139.59" y2="414.57"/>
      <line class="cls-3" x1="168.48" y1="561.03" x2="62.03" y2="518.49"/>
      <line class="cls-3" x1="261.77" y1="670.92" x2="169.77" y2="558.37"/>
      <line class="cls-3" x1="168.18" y1="559.48" x2="71.57" y2="614.65"/>
      <line class="cls-3" x1="135.04" y1="669.04" x2="72.86" y2="615.87"/>
      <line class="cls-3" x1="259.3" y1="668.74" x2="137.96" y2="672.44"/>
      <line class="cls-3" x1="137.96" y1="672.44" x2="168.18" y2="559.48"/>
      <line class="cls-3" x1="331" y1="806.51" x2="204.97" y2="753.18"/>
      <line class="cls-3" x1="202.71" y1="751.04" x2="136.66" y2="672.44"/>
      <line class="cls-3" x1="259.3" y1="668.74" x2="204.97" y2="753.18"/>
      <line class="cls-3" x1="512.44" y1="542.88" x2="331" y2="806.51"/>
      <line class="cls-3" x1="259.3" y1="669.04" x2="331" y2="801.49"/>
      <line class="cls-3" x1="202.71" y1="751.04" x2="245.97" y2="866.82"/>
      <line class="cls-3" x1="203.05" y1="751.96" x2="128.43" y2="779.85"/>
      <line class="cls-3" x1="332.77" y1="805.51" x2="245.97" y2="866.82"/>
      <line class="cls-3" x1="332.77" y1="805.51" x2="389.92" y2="912.64"/>
      <line class="cls-3" x1="96" y1="304.45" x2="137.38" y2="411.5"/>
      <line class="cls-3" x1="250.68" y1="386.07" x2="137.38" y2="411.5"/>
      <line class="cls-3" x1="205.51" y1="302.23" x2="96.57" y2="305.91"/>
      <line class="cls-3" x1="205.51" y1="304.45" x2="144.09" y2="226.79"/>
      <line class="cls-3" x1="733.17" y1="323.81" x2="512.44" y2="542.88"/>
      <line class="cls-3" x1="512" y1="541.22" x2="236.8" y2="494.1"/>
      <line class="cls-3" x1="235.68" y1="493.19" x2="168.18" y2="558.37"/>
      <line class="cls-3" x1="510.78" y1="545.3" x2="259.3" y2="669.04"/>
      <line class="cls-3" x1="475.76" y1="123.99" x2="409.94" y2="218.4"/>
      <line class="cls-3" x1="411.09" y1="217.72" x2="289.3" y2="209.68"/>
      <line class="cls-3" x1="204.11" y1="151.88" x2="289.3" y2="206.88"/>
      <line class="cls-3" x1="252" y1="386.07" x2="205.51" y2="304.45"/>
      <line class="cls-3" x1="359.92" y1="82.77" x2="289.14" y2="207.07"/>
      <line class="cls-3" x1="362.92" y1="82.18" x2="475.76" y2="123.99"/>
      <line class="cls-3" x1="533.44" y1="55.65" x2="474.58" y2="123.99"/>
      <line class="cls-3" x1="475.76" y1="123.99" x2="613.92" y2="169.37"/>
      <line class="cls-3" x1="964.33" y1="403.4" x2="885.84" y2="315.54"/>
      <line class="cls-3" x1="776" y1="161.44" x2="733.17" y2="323.44"/>
      <line class="cls-3" x1="634.42" y1="73.15" x2="616.14" y2="170.64"/>
      <line class="cls-3" x1="613.92" y1="171.2" x2="776" y2="162.54"/>
      <line class="cls-3" x1="833.27" y1="237.57" x2="778.55" y2="162.54"/>
      <line class="cls-3" x1="884.45" y1="312.96" x2="736.02" y2="323.44"/>
      <line class="cls-3" x1="697.62" y1="222.31" x2="733.17" y2="323.8"/>
      <line class="cls-3" x1="927.9" y1="212.24" x2="884.45" y2="312.96"/>
      <line class="cls-3" x1="833.27" y1="237.57" x2="884.45" y2="312.96"/>
      <line class="cls-3" x1="736.02" y1="323.44" x2="833.27" y2="443.26"/>
      <line class="cls-3" x1="882.05" y1="312.96" x2="831.5" y2="441.08"/>
      <line class="cls-3" x1="831.5" y1="443.26" x2="786.26" y2="512"/>
      <line class="cls-3" x1="860.06" y1="572.17" x2="784.65" y2="511.39"/>
      <line class="cls-3" x1="774.21" y1="685.37" x2="515.5" y2="545.3"/>
      <line class="cls-3" x1="697.62" y1="797.41" x2="608.42" y2="801.49"/>
      <line class="cls-3" x1="776.77" y1="685.37" x2="697.62" y2="797.41"/>
      <line class="cls-3" x1="593.42" y1="888.59" x2="608.42" y2="801.49"/>
      <line class="cls-3" x1="767.5" y1="869.38" x2="697.62" y2="797.41"/>
      <line class="cls-3" x1="767.5" y1="869.38" x2="593.42" y2="888.59"/>
      <line class="cls-3" x1="484.66" y1="869.38" x2="389.92" y2="912.64"/>
      <line class="cls-3" x1="590.52" y1="888.59" x2="486.49" y2="870.22"/>
      <line class="cls-3" x1="492.08" y1="953.56" x2="484.66" y2="873.59"/>
      <line class="cls-3" x1="593.85" y1="888.59" x2="492.08" y2="955.33"/>
      <line class="cls-3" x1="678.63" y1="940.19" x2="593.85" y2="891.01"/>
      <line class="cls-3" x1="774.21" y1="685.37" x2="822.7" y2="770.73"/>
      <line class="cls-3" x1="822.7" y1="773.02" x2="767.5" y2="870.22"/>
      <line class="cls-3" x1="882.05" y1="712.77" x2="776.77" y2="687.09"/>
      <line class="cls-3" x1="860.06" y1="572.17" x2="774.21" y2="685.49"/>
      <line class="cls-3" x1="950.4" y1="642.25" x2="879.46" y2="712.77"/>
      <line class="cls-3" x1="879.46" y1="712.77" x2="825.92" y2="770.73"/>
      <line class="cls-3" x1="879.46" y1="712.77" x2="915.84" y2="790.2"/>
      <line class="cls-3" x1="950.4" y1="638.37" x2="857.82" y2="572.17"/>
      <line class="cls-3" x1="964.33" y1="405.45" x2="900.84" y2="498.9"/>
      <line class="cls-3" x1="832.54" y1="442.36" x2="964.33" y2="405.45"/>
      <line class="cls-3" x1="903.24" y1="495.35" x2="980.12" y2="542.88"/>
      <line class="cls-3" x1="902" y1="497.19" x2="860.06" y2="572.17"/>
      <line class="cls-3" x1="613.92" y1="169.37" x2="697.62" y2="222.24"/>
      <line class="cls-3" x1="252" y1="385.3" x2="515.49" y2="545.3"/>
      <line class="cls-3" x1="409.94" y1="217.72" x2="515.49" y2="536.64"/>
      <line class="cls-3" x1="784.65" y1="513.48" x2="510.78" y2="545.3"/>
      <line class="cls-3" x1="512.29" y1="543.1" x2="608.42" y2="799.45"/>
      <line class="cls-3" x1="613.92" y1="171.2" x2="512" y2="541.78"/>
      <line class="cls-3" x1="510.78" y1="545.3" x2="484.66" y2="869.38"/>
      <line class="cls-3" x1="486.49" y1="869.38" x2="331" y2="806.51"/>
      <line class="cls-3" x1="858.86" y1="572.17" x2="879.46" y2="707.34"/>
      <line class="cls-3" x1="900.84" y1="497.19" x2="831.5" y2="443.26"/>
    </g>
    <g id="_レイヤー_5" data-name="レイヤー 5">
      <circle class="cls-5" cx="168.48" cy="561.03" r="24.39"/>
      <circle class="cls-5" cx="205.51" cy="304.45" r="24.39"/>
      <circle class="cls-5" cx="259.3" cy="669.04" r="22.5"/>
      <circle class="cls-5" cx="139.77" cy="413.46" r="30"/>
      <circle class="cls-5" cx="860.06" cy="572.17" r="24.39"/>
      <circle class="cls-5" cx="884.45" cy="312.96" r="24.39"/>
      <circle class="cls-5" cx="774.21" cy="685.37" r="30"/>
      <circle class="cls-5" cx="697.62" cy="222.31" r="24.39"/>
      <circle class="cls-5" cx="58.17" cy="518.49" r="24.39"/>
      <circle class="cls-5" cx="822.7" cy="773.02" r="24.39"/>
      <circle class="cls-5" cx="331" cy="806.51" r="22.5"/>
      <circle class="cls-5" cx="289.3" cy="206.88" r="30"/>
      <circle class="cls-5" cx="964.33" cy="405.45" r="24.39"/>
      <circle class="cls-5" cx="484.66" cy="869.38" r="24.39"/>
      <circle class="cls-5" cx="697.62" cy="797.41" r="24.39"/>
      <circle class="cls-5" cx="474.58" cy="123.99" r="17.5"/>
      <circle class="cls-5" cx="833.27" cy="443.26" r="22.5"/>
      <circle class="cls-5" cx="950.4" cy="638.37" r="22.5"/>
      <circle class="cls-5" cx="136.66" cy="670.92" r="24.39"/>
      <circle class="cls-5" cx="204.97" cy="753.38" r="22.5"/>
      <circle class="cls-5" cx="613.92" cy="170.64" r="20.5"/>
      <circle class="cls-5" cx="776" cy="161.44" r="22.5"/>
      <circle class="cls-5" cx="767.5" cy="869.38" r="17.5"/>
      <circle class="cls-5" cx="634.42" cy="73.15" r="17.5"/>
      <circle class="cls-5" cx="245.98" cy="866.82" r="17.5"/>
      <circle class="cls-5" cx="733.17" cy="323.8" r="15"/>
      <circle class="cls-5" cx="593.42" cy="888.59" r="15"/>
      <circle class="cls-5" cx="833.27" cy="237.57" r="15"/>
      <circle class="cls-5" cx="389.92" cy="912.64" r="15"/>
      <circle class="cls-5" cx="900.84" cy="496.39" r="15"/>
      <circle class="cls-5" cx="410.08" cy="218.4" r="15"/>
      <circle class="cls-5" cx="235.68" cy="493.19" r="15"/>
      <circle class="cls-5" cx="879.46" cy="712.77" r="15"/>
      <circle class="cls-5" cx="492.08" cy="953.56" r="15"/>
      <circle class="cls-5" cx="786.26" cy="512" r="15"/>
      <circle class="cls-5" cx="250.68" cy="386.07" r="15"/>
      <circle class="cls-5" cx="96" cy="304.45" r="15"/>
      <circle class="cls-5" cx="359.92" cy="82.77" r="15"/>
      <circle class="cls-5" cx="533.44" cy="55.65" r="10"/>
      <circle class="cls-5" cx="204.11" cy="151.88" r="10"/>
      <circle class="cls-5" cx="144.09" cy="226.79" r="10"/>
      <circle class="cls-5" cx="52.03" cy="395.29" r="10"/>
      <circle class="cls-5" cx="72.86" cy="615.87" r="10"/>
      <circle class="cls-5" cx="678.63" cy="940.19" r="10"/>
      <circle class="cls-5" cx="125.07" cy="781.08" r="10"/>
      <circle class="cls-5" cx="980.12" cy="542.88" r="10"/>
      <circle class="cls-5" cx="608.42" cy="801.49" r="10"/>
      <circle class="cls-5" cx="927.9" cy="212.24" r="10"/>
      <circle class="cls-5" cx="915.84" cy="790.2" r="10"/>
      <circle class="cls-5" cx="512.44" cy="542.88" r="22.5"/>
      <rect class="cls-1" x="417.05" y="342.83" width="201.37" height="73.22"/>
    </g>
  </g>
  <g id="_レイヤー_2" data-name="レイヤー 2">
    <path class="cls-4" d="M623.56,380.22c-1.49-20.59-17.38-35.45-33.5-46.62,7.93-1.93,15.61-3.34,23.3-6.51,22.77-9.38,41.99-26,51.49-49.06.74-1.8,2.42-5.82.31-7.24-3.77-2.55-8.3-3.9-12.85-5.04-44.93-11.26-91.73-.82-129.03,26.17-5.35-24.72,1.5-58.75,13.24-80.18,7.03-12.83-17.24-20.85-25.82-23.31-5.33-1.53-10.65-.57-13.24,4.92-12.83,28.31-12.81,66.6-5.1,98-35.33-25.12-71.36-33.3-113.17-26-7.67,2.22-17.72,4.64-23.95,8.96-5.6,3.88,3.95,14.68,6.9,18.76,8.52,10.5,18.79,18.48,30.5,25.29,11.95,6.95,24.65,9.91,39.24,12.76-17.13,10.42-32.85,29.68-32.53,49.19,30.69,3.02,57.08-2.99,82.99-19.12,10.3-6.41,18.71-14.84,27.03-23.54,5.89,6.27,10.64,12.05,17.14,16.74,29.38,21.22,61.22,28.41,97.07,25.83Z"/>
    <path class="cls-4" d="M686.12,348.13c-12.77-6.97-25.68-11.55-40.07-13.39-7.01-.9-14.15-.74-20.05,3.09.11,1.74,1.33,3.01,2.11,4.15,4.56,6.63,9.42,12.66,13.06,19.83,4.52,8.92,7.78,18.41,9.37,28.23.74,4.54-2.26,8.31-6.42,9.28-21.03,4.9-46.69,3.91-67.8-.81-24.64-5.51-46.77-17.46-64.65-35.04-.99-.97-1.98-1.56-3-1.28-3.94,1.09-26.67,32.1-80.31,39.36-16.57,2.24-33.17,2.44-49.49-1.28-10.4-2.37-5.17-14.85-2.27-23.69,4.61-14.03,11.52-26.49,21.55-38.08-9.72-7.19-27.23-3.03-38.24.39-30.77,9.56-55.2,31.12-69.04,60.18-18.16,38.12-19.25,88.38-11.2,129.32,10.79,54.88,40.65,107.36,74.36,151.5,28.6,37.46,63.22,73.71,100.71,102.35,5.75,4.39,11.28,8.57,17.44,12.5,25.88,16.51,38.96,21.5,68.1,5.7,8.5-4.61,16.69-9.01,24.47-14.72l13.84-10.14c25.25-18.5,53.48-46.98,74.01-70.96,14.41-16.84,27.21-33.98,39.38-52.59,22.89-35.02,42.25-73.36,51.49-114.39,14.7-65.29,8.22-153.73-57.35-189.52Z"/>
  </g>
</svg>